#!OML:ASF F:\VICON\USERDATA\INSTALL\rory3\rory3.ASF
:FULLY-SPECIFIED
:DEGREES
45
root -5.901994099050364 17.861832301117964 3.359641559947872 -0.7499515180944059 34.80678333858306 -14.04783957832116
lfemur -1.886287352686928 22.49928317780251 8.09252556264458
ltibia 35.347931491444186
lfoot 2.8808134820996085 15.17269907385136
ltoes -35.17496102072133
rfemur -30.66749156839738 21.661496619598694 26.03861820066307
rtibia 29.225676110415513
rfoot -4.542408239405822 29.607891173325214
rtoes 43.62504427437429
lowerback 2.300362927383054 -9.27646035557803 -14.686600789835392
upperback -1.2566819070530948 -13.056320902062016 -5.287339879886348
thorax -0.32708395693028913 -6.36432185469447 3.1134562572848337
lowerneck -5.745959016563914 22.18572512770255 -0.037992839039725945
upperneck 12.867810056231914 32.052670461139165 -12.04128833903609
head 7.217141855228923 14.682242113300664 -1.291999495267426
lclavicle -4.780046431527709e-15 -1.0085559305883332e-14
lhumerus 115.27738114637695 -38.81653212570988 38.9015290518791
lradius 38.585897586249956
lwrist 0.18463913385590303
lhand -25.40655296146509 -4.486892931615603
lfingers 7.125020000000001
lthumb -178.8696383344133 60.56740225984072
rclavicle -4.780046431527709e-15 -1.0085559305883332e-14
rhumerus 33.446908659516396 -26.862936170553308 -51.17951758509898
rradius 107.31269233925573
rwrist 2.549379864864278
rhand -64.84977964917917 35.14380131998072
rfingers 7.125020000000001
rthumb -36.78923640587931 7.97733764729157
46
root -5.9106321378053455 17.867562418066413 3.2995671475547703 0.25803620554634676 36.13189363106417 -13.413310033769548
lfemur -2.838416892555884 23.25024925878597 7.922140398942936
ltibia 35.3511006296166
lfoot 2.126410851095088 15.361000812554822
ltoes -34.266841614600565
rfemur -31.049320342858138 20.93867471938625 26.04446449074726
rtibia 29.19477430719168
rfoot -4.817827701274832 29.15202674167086
rtoes 41.683307505272154
lowerback 2.8277884648457037 -9.18345154705833 -14.463862151445586
upperback -0.9424687826377536 -12.965721844186422 -5.065232093634778
thorax -0.2683303909505232 -6.3375437453862595 3.336984717713764
lowerneck -5.847680597735077 22.307866927658164 -0.12422244743865218
upperneck 13.17360705495629 32.290155133764486 -11.932224126250254
head 7.311252447984295 14.769210524635552 -1.2288652564759008
lclavicle -4.077155932147403e-15 -9.464905493330475e-15
lhumerus 115.08942624619746 -38.81614716193445 39.286513963061054
lradius 38.12911178266326
lwrist 0.5204572270669132
lhand -23.622395673411912 -3.6865115166292526
lfingers 7.125020000000001
lthumb -177.15238390721328 63.52731542844621
rclavicle -4.077155932147404e-15 -9.464905493330473e-15
rhumerus 34.17956232725026 -26.17760659451175 -52.14820945785925
rradius 106.68504464975723
rwrist 0.5084494542335563
rhand -64.60425615723864 34.380777122731146
rfingers 7.125020000000001
rthumb -36.554756145835185 7.204900001041295
47
root -5.924420233987781 17.87168599888322 3.2017147058310726 1.7406987393481472 37.56893058381944 -12.304494594751276
lfemur -4.1350724457443295 23.999201945416942 7.541355870685983
ltibia 35.24119316798156
lfoot 1.309519531661433 15.34666716674222
ltoes -33.17987974755788
rfemur -31.62245061758432 20.027864076890552 25.977252276244396
rtibia 29.063250545219827
rfoot -5.08514324103658 28.343838218972387
rtoes 39.255455751999165
lowerback 3.3001268999625872 -9.054661811304927 -14.214350711130738
upperback -0.6598777354670609 -12.855156372492356 -4.820627957198761
thorax -0.22180024413667743 -6.315375174366904 3.5451822987689106
lowerneck -5.967847994386943 22.227227833846584 -0.15292810979520988
upperneck 13.533608259012581 32.235161445325836 -11.838351582615552
head 7.431723318421787 14.719330521793113 -1.1781163536180919
lclavicle -3.828514079007189e-15 -9.239198897180894e-15
lhumerus 114.48041729546344 -39.11501840628201 39.58829279876096
lradius 37.49304321459404
lwrist 0.7798242828933688
lhand -21.87707217760832 -2.8411015734242078
lfingers 7.125020000000001
lthumb -175.471955992385 65.23214197793158
rclavicle -3.828514079007189e-15 -9.239198897180894e-15
rhumerus 34.63480189412882 -25.48937761188763 -53.44184864152378
rradius 105.77853479876944
rwrist -1.6684348950208232
rhand -64.30818308468103 33.216064951009265
rfingers 7.125020000000001
rthumb -36.27249262598325 6.021417897325641
48
root -5.944607478334381 17.874321783722795 3.0919116166953553 3.7642151826630084 39.38338404999625 -10.76103423633191
lfemur -5.7327800724395175 24.79539219171644 6.9779118007676075
ltibia 35.12229145096382
lfoot 0.2946515813794681 15.343841859583344
ltoes -31.85796932163223
rfemur -32.45423113848344 18.872756302334174 25.82449435909725
rtibia 28.992383365818345
rfoot -5.570727349409467 27.252540695912785
rtoes 36.46200815129907
lowerback 3.8225728214126664 -9.023398142247952 -14.008281152362551
upperback -0.3297285325940593 -12.83961305642364 -4.5377164698428345
thorax -0.16698743036396174 -6.33414912588602 3.79753809916562
lowerneck -6.092914271398052 22.130122656655676 -0.07693413223458156
upperneck 13.851148423202579 32.16644964361188 -11.85105018867121
head 7.545272650855957 14.65752493809239 -1.163021231921467
lclavicle -3.828186498673012e-15 -9.225893626241524e-15
lhumerus 113.718727589443 -39.744158087547234 39.72627269129552
lradius 36.640983683551504
lwrist 1.0701944268381816
lhand -20.157982395452052 -2.171236868545183
lfingers 7.125020000000001
lthumb -173.81676972546808 65.83855111684764
rclavicle -3.828186498673012e-15 -9.225893626241524e-15
rhumerus 34.752564067914314 -24.89415503425341 -54.876924091932295
rradius 104.78520656331312
rwrist -3.8880222542464082
rhand -63.99986239614583 31.974016471495837
rfingers 7.125020000000001
rthumb -35.978602002606536 4.74680801059651
49
root -5.9630085832920905 17.87850243657433 2.9653299786736653 6.217789113392357 41.73197612338701 -8.820329163623697
lfemur -7.650313008845254 25.541629192438588 6.2976037086764975
ltibia 35.048333642113136
lfoot -0.7408796568606366 15.328483635922334
ltoes -30.221630838196777
rfemur -33.23330991830796 17.541123040670755 25.669694750082996
rtibia 28.857514470010134
rfoot -5.963674524045174 25.903327294262795
rtoes 33.01466683000144
lowerback 4.343415795976963 -8.938292393203682 -13.655894940042922
upperback 0.021862068387069833 -12.734087074537467 -4.143095447135085
thorax -0.07826019545738871 -6.319143448823217 4.074175406393216
lowerneck -6.288970002943131 21.958062144401605 0.03367974630352977
upperneck 14.220478406228532 32.00379329853008 -11.81260387970344
head 7.697847764985284 14.54509306443849 -1.1345280228569359
lclavicle -3.633055430377979e-15 -9.024641289795364e-15
lhumerus 112.99549604512407 -40.287390189299614 40.01414334665643
lradius 35.93798322262742
lwrist 1.502405695851321
lhand -18.47717807597908 -1.4058755848094897
lfingers 7.125020000000001
lthumb -172.19910896478714 68.45606409488828
rclavicle -3.633055430377979e-15 -9.024641289795364e-15
rhumerus 35.13539615923659 -24.244773208832203 -56.34189151592146
rradius 103.80975657269565
rwrist -5.909217474289608
rhand -63.65584837479797 30.6451677997805
rfingers 7.125020000000001
rthumb -35.65027131013403 3.3933337431029855
50
root -5.989202608164423 17.88029243031438 2.815009824576925 8.99470451310789 44.54245437187048 -6.607396064275662
lfemur -9.941043626548552 26.301654408709638 5.407672156750396
ltibia 34.98144071429975
lfoot -1.8289744009283044 15.135421467606873
ltoes -28.58456954697183
rfemur -34.25318067080524 16.083053972902853 25.402753927751522
rtibia 28.753184041410744
rfoot -6.422700857726244 24.128642460992445
rtoes 29.16658373669849
lowerback 4.828756806869208 -8.906669990230334 -13.299202657313916
upperback 0.41074725655466615 -12.69080096798324 -3.716201633945102
thorax 0.05357891598300546 -6.335916136349432 4.369215381771237
lowerneck -6.496383334511753 21.687033032761246 0.2820390507241023
upperneck 14.635655903285251 31.709243851418044 -11.886452160239756
head 7.878782818833956 14.36635506287011 -1.1466227798537978
lclavicle -3.751602521004409e-15 -9.107561964134755e-15
lhumerus 111.98420130406089 -41.2797619855086 40.20112629463755
lradius 34.92064603115798
lwrist 1.710865636492132
lhand -16.8694756413359 -0.5623943435103271
lfingers 7.125020000000001
lthumb -170.65091136557984 68.92351859543368
rclavicle -3.751602521004409e-15 -9.107561964134753e-15
rhumerus 35.03314227538255 -23.668732835810037 -58.15032255662527
rradius 102.70242052660163
rwrist -8.154818170132213
rhand -63.35295397926468 29.025223697923096
rfingers 7.125020000000001
rthumb -35.362322379579396 1.7488147182631977
51
root -6.01411064129122 17.881717633732016 2.6393254397096277 11.41571419942305 47.9689546517605 -4.820184511313457
lfemur -12.61882646695288 26.847776715052074 4.302559497895395
ltibia 34.922619283268205
lfoot -2.938631293720052 14.809130065761126
ltoes -26.646112756052528
rfemur -35.283867931423444 14.367934477458343 25.036041967761086
rtibia 28.652754230118262
rfoot -6.979146793386026 21.81098496682535
rtoes 24.700520114222172
lowerback 5.271911418960899 -8.88884344443814 -12.846599091515744
upperback 0.834341296210372 -12.634289787018801 -3.197670485467697
thorax 0.2474205833347014 -6.354655647762618 4.687790695297966
lowerneck -6.772259378356992 21.26238793924159 0.6109562658323519
upperneck 15.07690651679335 31.213727905980015 -11.97442287082282
head 8.086716209317341 14.085300632424032 -1.1806064074210059
lclavicle -3.928833274650092e-15 -9.226297516792523e-15
lhumerus 110.74661588168746 -42.38112750079175 40.61988862624008
lradius 33.89585534393924
lwrist 2.010026180302905
lhand -15.334250712845076 0.28681865808382767
lfingers 7.125020000000001
lthumb -169.17303089014587 70.23987845959901
rclavicle -3.928833274650092e-15 -9.226297516792523e-15
rhumerus 34.86247097109912 -23.136572122571373 -60.02100508866781
rradius 101.4710543199813
rwrist -10.356320552142813
rhand -63.144935395836306 27.377574161518865
rfingers 7.125020000000001
rthumb -35.16472706671627 0.08056980308807837
